# xmcd
#
# Track frame offsets: 
#        182
#        18160
#        35457
#        53422
#        69902
#        80665
#        93105
#        104470
#        118395
#        136277
#        154182
#        165607
#        181792
#        197830
#        210345
#        219530
#
# Disc length: 3110 seconds
#
# Revision: 0
# Processed by: cddbd v1.5.2PL0 Copyright (c) Steve Scherf et al.
# Submitted via: ExactAudioCopyFreeDBPlugin 1.0
#
DISCID=d00c2410
DTITLE=Compilation - Nashville Country
DYEAR=2000
DGENRE=Country
TTITLE0=John Anderson - Seminole Wind
TTITLE1=Brooks and Dunn - South Of Santa Fe
TTITLE2=Alan Jackson - I'll Go On Loving You
TTITLE3=Alabama - Mountain Music
TTITLE4=Diamond Rio - Unbelievable
TTITLE5=Lorrie Morgan - What Part Of No
TTITLE6=Waylon Jennings and Willie Nelson - Mamas Don't Let Your Babies 
TTITLE6=Grow Up To Be Cowboy
TTITLE7=Clint Black - A Better Man
TTITLE8=Tractors - Baby Likes To Rock It
TTITLE9=Alan Jackson - Chattahoochee
TTITLE10=BR 549 - Cherokee Boogie
TTITLE11=Waylon Jennings - Honky Tonk Heroes
TTITLE12=Vince Gill - Cinderella
TTITLE13=Jerry Reed - East Bound And Down
TTITLE14=Chet Atkins - Yakety Axe
TTITLE15=Dolly Parton - I Will Always Love You
EXTD=
EXTT0=
EXTT1=
EXTT2=
EXTT3=
EXTT4=
EXTT5=
EXTT6=
EXTT7=
EXTT8=
EXTT9=
EXTT10=
EXTT11=
EXTT12=
EXTT13=
EXTT14=
EXTT15=
PLAYORDER=
